<svg width="117" height="31" viewBox="0 0 117 31" fill="none" xmlns="http://www.w3.org/2000/svg">
<path d="M49.9495 23.7732H46.1875L39.8955 14.2472V23.7732H36.1335V8.32919H39.8955L46.1875 17.8992V8.32919H49.9495V23.7732Z" fill="#161616"/>
<path d="M51.9285 17.6132C51.9285 16.3519 52.1632 15.2445 52.6325 14.2912C53.1165 13.3379 53.7692 12.6045 54.5905 12.0912C55.4118 11.5779 56.3285 11.3212 57.3405 11.3212C58.2058 11.3212 58.9612 11.4972 59.6065 11.8492C60.2665 12.2012 60.7725 12.6632 61.1245 13.2352V11.4972H64.8865V23.7732H61.1245V22.0352C60.7578 22.6072 60.2445 23.0692 59.5845 23.4212C58.9392 23.7732 58.1838 23.9492 57.3185 23.9492C56.3212 23.9492 55.4118 23.6925 54.5905 23.1792C53.7692 22.6512 53.1165 21.9105 52.6325 20.9572C52.1632 19.9892 51.9285 18.8745 51.9285 17.6132ZM61.1245 17.6352C61.1245 16.6965 60.8605 15.9559 60.3325 15.4132C59.8192 14.8705 59.1885 14.5992 58.4405 14.5992C57.6925 14.5992 57.0545 14.8705 56.5265 15.4132C56.0132 15.9412 55.7565 16.6745 55.7565 17.6132C55.7565 18.5519 56.0132 19.2999 56.5265 19.8572C57.0545 20.3999 57.6925 20.6712 58.4405 20.6712C59.1885 20.6712 59.8192 20.3999 60.3325 19.8572C60.8605 19.3145 61.1245 18.5739 61.1245 17.6352Z" fill="#161616"/>
<path d="M69.5002 10.2212C68.8402 10.2212 68.2975 10.0305 67.8722 9.64918C67.4615 9.25318 67.2562 8.76918 67.2562 8.19719C67.2562 7.61052 67.4615 7.12652 67.8722 6.74518C68.2975 6.34918 68.8402 6.15118 69.5002 6.15118C70.1455 6.15118 70.6735 6.34918 71.0842 6.74518C71.5095 7.12652 71.7222 7.61052 71.7222 8.19719C71.7222 8.76918 71.5095 9.25318 71.0842 9.64918C70.6735 10.0305 70.1455 10.2212 69.5002 10.2212ZM71.3702 11.4972V23.7732H67.6082V11.4972H71.3702Z" fill="#161616"/>
<path d="M77.8584 13.5432C78.2984 12.8685 78.8484 12.3405 79.5084 11.9592C80.1684 11.5632 80.9018 11.3652 81.7084 11.3652V15.3472H80.6744C79.7358 15.3472 79.0318 15.5525 78.5624 15.9632C78.0931 16.3592 77.8584 17.0632 77.8584 18.0752V23.7732H74.0964V11.4972H77.8584V13.5432Z" fill="#161616"/>
<path d="M89.0946 23.9492C87.8919 23.9492 86.8066 23.6925 85.8386 23.1792C84.8853 22.6659 84.1299 21.9325 83.5726 20.9792C83.0299 20.0259 82.7586 18.9112 82.7586 17.6352C82.7586 16.3739 83.0373 15.2665 83.5946 14.3132C84.1519 13.3452 84.9146 12.6045 85.8826 12.0912C86.8506 11.5779 87.9359 11.3212 89.1386 11.3212C90.3413 11.3212 91.4266 11.5779 92.3946 12.0912C93.3626 12.6045 94.1253 13.3452 94.6826 14.3132C95.2399 15.2665 95.5186 16.3739 95.5186 17.6352C95.5186 18.8965 95.2326 20.0112 94.6606 20.9792C94.1033 21.9325 93.3333 22.6659 92.3506 23.1792C91.3826 23.6925 90.2973 23.9492 89.0946 23.9492ZM89.0946 20.6932C89.8133 20.6932 90.4219 20.4292 90.9206 19.9012C91.4339 19.3732 91.6906 18.6179 91.6906 17.6352C91.6906 16.6525 91.4413 15.8972 90.9426 15.3692C90.4586 14.8412 89.8573 14.5772 89.1386 14.5772C88.4053 14.5772 87.7966 14.8412 87.3126 15.3692C86.8286 15.8825 86.5866 16.6379 86.5866 17.6352C86.5866 18.6179 86.8213 19.3732 87.2906 19.9012C87.7746 20.4292 88.3759 20.6932 89.0946 20.6932Z" fill="#161616"/>
<path d="M101.276 13.2352C101.628 12.6632 102.134 12.2012 102.794 11.8492C103.454 11.4972 104.21 11.3212 105.06 11.3212C106.072 11.3212 106.989 11.5779 107.81 12.0912C108.632 12.6045 109.277 13.3379 109.746 14.2912C110.23 15.2445 110.472 16.3519 110.472 17.6132C110.472 18.8745 110.23 19.9892 109.746 20.9572C109.277 21.9105 108.632 22.6512 107.81 23.1792C106.989 23.6925 106.072 23.9492 105.06 23.9492C104.195 23.9492 103.44 23.7805 102.794 23.4432C102.149 23.0912 101.643 22.6292 101.276 22.0572V23.7732H97.5144V7.49319H101.276V13.2352ZM106.644 17.6132C106.644 16.6745 106.38 15.9412 105.852 15.4132C105.339 14.8705 104.701 14.5992 103.938 14.5992C103.19 14.5992 102.552 14.8705 102.024 15.4132C101.511 15.9559 101.254 16.6965 101.254 17.6352C101.254 18.5739 101.511 19.3145 102.024 19.8572C102.552 20.3999 103.19 20.6712 103.938 20.6712C104.686 20.6712 105.324 20.3999 105.852 19.8572C106.38 19.2999 106.644 18.5519 106.644 17.6132Z" fill="#161616"/>
<path d="M114.338 10.2212C113.678 10.2212 113.135 10.0305 112.71 9.64918C112.299 9.25318 112.094 8.76918 112.094 8.19719C112.094 7.61052 112.299 7.12652 112.71 6.74518C113.135 6.34918 113.678 6.15118 114.338 6.15118C114.983 6.15118 115.511 6.34918 115.922 6.74518C116.347 7.12652 116.56 7.61052 116.56 8.19719C116.56 8.76918 116.347 9.25318 115.922 9.64918C115.511 10.0305 114.983 10.2212 114.338 10.2212ZM116.208 11.4972V23.7732H112.446V11.4972H116.208Z" fill="#161616"/>
<path fill-rule="evenodd" clip-rule="evenodd" d="M29.9988 30.4053L0.1537 12.8193L0.260498 0.782944L30.1056 18.369L29.9988 30.4053Z" fill="#5030E5"/>
<path d="M17.2489 0.150681C17.2338 1.8578 17.555 3.55118 18.1943 5.13415C18.8336 6.71712 19.7784 8.15867 20.9748 9.37649C22.1712 10.5943 23.5958 11.5646 25.1671 12.2318C26.7385 12.8991 28.4259 13.2504 30.133 13.2655L30.2484 0.266026L17.2489 0.150681Z" fill="#5030E5"/>
<path d="M13.0006 30.1512C13.0158 28.4441 12.6945 26.7507 12.0552 25.1677C11.4159 23.5847 10.4711 22.1432 9.27471 20.9254C8.07831 19.7075 6.65375 18.7373 5.08237 18.07C3.511 17.4027 1.82358 17.0515 0.116465 17.0363L0.00112177 30.0358L13.0006 30.1512Z" fill="#5030E5"/>
</svg>
