<svg width="33" height="40" viewBox="0 0 33 40" fill="none" xmlns="http://www.w3.org/2000/svg">
<g id="Icon">
<g id="Group 10314">
<g id="Group 10313">
<path id="Vector" d="M20 2H5.6C4.64522 2 3.72955 2.37928 3.05442 3.05442C2.37928 3.72955 2 4.64522 2 5.6V34.4C2 35.3548 2.37928 36.2705 3.05442 36.9456C3.72955 37.6207 4.64522 38 5.6 38H27.2C28.1548 38 29.0705 37.6207 29.7456 36.9456C30.4207 36.2705 30.8 35.3548 30.8 34.4V12.8L20 2Z" stroke="url(#paint0_linear_116_11806)" stroke-width="3.3" stroke-linecap="round" stroke-linejoin="round"/>
<path id="Vector_2" d="M20 2V12.8H30.8" stroke="url(#paint1_linear_116_11806)" stroke-width="3.3" stroke-linecap="round" stroke-linejoin="round"/>
<path id="Vector_3" d="M23.5998 21.8H9.19983" stroke="url(#paint2_linear_116_11806)" stroke-width="3.3" stroke-linecap="round" stroke-linejoin="round"/>
<path id="Vector_4" d="M23.5998 29H9.19983" stroke="url(#paint3_linear_116_11806)" stroke-width="3.3" stroke-linecap="round" stroke-linejoin="round"/>
<path id="Vector_5" d="M12.7998 14.6003H10.9998H9.19983" stroke="url(#paint4_linear_116_11806)" stroke-width="3.3" stroke-linecap="round" stroke-linejoin="round"/>
</g>
</g>
</g>
<defs>
<linearGradient id="paint0_linear_116_11806" x1="16.4" y1="2" x2="16.4" y2="38" gradientUnits="userSpaceOnUse">
<stop stop-color="#8030E5"/>
<stop offset="1" stop-color="#5030E5"/>
</linearGradient>
<linearGradient id="paint1_linear_116_11806" x1="25.4" y1="2" x2="25.4" y2="12.8" gradientUnits="userSpaceOnUse">
<stop stop-color="#8030E5"/>
<stop offset="1" stop-color="#5030E5"/>
</linearGradient>
<linearGradient id="paint2_linear_116_11806" x1="16.3998" y1="21.8" x2="16.3998" y2="22.8" gradientUnits="userSpaceOnUse">
<stop stop-color="#8030E5"/>
<stop offset="1" stop-color="#5030E5"/>
</linearGradient>
<linearGradient id="paint3_linear_116_11806" x1="16.3998" y1="29" x2="16.3998" y2="30" gradientUnits="userSpaceOnUse">
<stop stop-color="#8030E5"/>
<stop offset="1" stop-color="#5030E5"/>
</linearGradient>
<linearGradient id="paint4_linear_116_11806" x1="10.9998" y1="14.6003" x2="10.9998" y2="15.6003" gradientUnits="userSpaceOnUse">
<stop stop-color="#8030E5"/>
<stop offset="1" stop-color="#5030E5"/>
</linearGradient>
</defs>
</svg>
