<svg width="21" height="20" viewBox="0 0 21 20" fill="none" xmlns="http://www.w3.org/2000/svg">
<path d="M1.92443 5.83617C1.81076 6.23448 2.04151 6.64952 2.43983 6.76319C2.83814 6.87685 3.25318 6.6461 3.36685 6.24779L1.92443 5.83617ZM5.43861 2.83385C5.73895 2.5486 5.75118 2.07388 5.46593 1.77354C5.18068 1.4732 4.70596 1.46097 4.40562 1.74623L5.43861 2.83385ZM16.9144 1.74623C16.614 1.46097 16.1393 1.4732 15.8541 1.77354C15.5688 2.07388 15.581 2.5486 15.8814 2.83385L16.9144 1.74623ZM17.9532 6.24779C18.0668 6.6461 18.4819 6.87685 18.8802 6.76319C19.2785 6.64952 19.5092 6.23448 19.3956 5.83617L17.9532 6.24779ZM15.7157 7.34731L16.8471 14.3617L18.328 14.1229L17.1966 7.10846L15.7157 7.34731ZM16.7648 14.4583H4.55516V15.9583H16.7648V14.4583ZM4.47289 14.3617L5.60425 7.34731L4.12339 7.10846L2.99203 14.1229L4.47289 14.3617ZM4.55516 14.4583C4.50384 14.4583 4.46472 14.4124 4.47289 14.3617L2.99203 14.1229C2.83677 15.0855 3.58011 15.9583 4.55516 15.9583V14.4583ZM16.8471 14.3617C16.8553 14.4124 16.8161 14.4583 16.7648 14.4583V15.9583C17.7399 15.9583 18.4832 15.0855 18.328 14.1229L16.8471 14.3617ZM10.66 3.04168C13.1735 3.04168 15.3155 4.86586 15.7157 7.34731L17.1966 7.10846C16.6791 3.90017 13.9098 1.54168 10.66 1.54168V3.04168ZM10.66 1.54168C7.41023 1.54168 4.64086 3.90017 4.12339 7.10846L5.60425 7.34731C6.00449 4.86586 8.14646 3.04168 10.66 3.04168V1.54168ZM13.2925 14.9412C12.8201 16.1802 11.7819 16.9583 10.66 16.9583V18.4583C12.52 18.4583 14.0444 17.1797 14.6941 15.4755L13.2925 14.9412ZM10.66 16.9583C9.53812 16.9583 8.49984 16.1802 8.02745 14.9412L6.62586 15.4755C7.27557 17.1797 8.79998 18.4583 10.66 18.4583V16.9583ZM3.36685 6.24779C3.74334 4.92845 4.46893 3.75482 5.43861 2.83385L4.40562 1.74623C3.24604 2.84756 2.37622 4.25297 1.92443 5.83617L3.36685 6.24779ZM15.8814 2.83385C16.8511 3.75482 17.5767 4.92845 17.9532 6.24779L19.3956 5.83617C18.9438 4.25297 18.074 2.84756 16.9144 1.74623L15.8814 2.83385Z" fill="#091135"/>
</svg>
