<svg width="47" height="46" viewBox="0 0 47 46" fill="none" xmlns="http://www.w3.org/2000/svg">
<path fill-rule="evenodd" clip-rule="evenodd" d="M36.9059 0C41.7837 0 45.8536 3.42198 46.7947 7.97109C46.9292 8.62098 46.9998 9.29384 46.9998 9.98303V35.5396C46.9998 41.053 42.4806 45.5226 36.9059 45.5226H11.0654C9.96173 45.5226 8.89948 45.3473 7.90543 45.0239C3.87842 43.7121 0.971436 39.9617 0.971436 35.5396V9.98303C0.971436 4.46956 5.49067 0 11.0654 0H36.9059ZM32.8118 3.19457H36.9059C40.251 3.19457 43.0374 5.56135 43.6462 8.6941C41.7037 8.91177 39.4831 8.71007 37.138 7.7162C35.0603 6.83538 33.6819 5.20355 32.8118 3.19457ZM23.2277 3.19457H29.3629C30.3823 6.22921 32.3349 9.15587 35.8658 10.6524C38.6982 11.853 41.388 12.1315 43.7698 11.8975V15.1617C40.5361 16.1741 37.3137 16.5839 34.7353 15.8375C33.4545 15.4668 31.9849 14.4825 30.4033 12.9341C28.8436 11.4069 27.2871 9.44267 25.8175 7.2956C24.9042 5.96134 24.0345 4.57147 23.2277 3.19457ZM19.5182 3.19457H15.244C15.4388 6.8095 14.5776 11.225 11.3739 15.6981C9.25144 18.6616 6.74147 20.2915 4.20151 21.0195V27.3882C5.73199 26.469 7.53377 25.2135 9.64328 23.5184C14.6276 19.513 18.5535 17.9194 21.5303 17.6279C24.4899 17.3381 26.5939 18.3534 27.5205 19.6367C28.4936 20.9839 29.0435 22.7893 29.2506 24.6932C29.4602 26.6203 29.3326 28.7699 28.8408 30.9031C27.8641 35.1439 25.3838 39.5579 20.9157 41.9375C20.6724 42.0673 20.4269 42.1975 20.1795 42.328H25.2001C27.1636 39.8626 28.735 37.4132 29.2987 35.4937C29.9346 33.3265 30.1958 31.0292 30.4397 28.8817L30.4401 28.8813V28.8805C30.5277 28.1094 30.6133 27.3571 30.713 26.6371C30.8862 25.3896 31.1253 24.0679 31.6384 23.1147C31.9102 22.6104 32.3418 22.0489 33.0363 21.7247C33.7675 21.3832 34.5285 21.4252 35.196 21.6452C37.067 22.2622 39.5541 22.3899 43.7698 21.3453V18.496C40.5187 19.4019 36.9741 19.8142 33.8276 18.9035C31.7975 18.3158 29.8704 16.9075 28.131 15.2043C26.3698 13.48 24.6813 11.3337 23.143 9.08655C21.8271 7.16438 20.6021 5.14002 19.5182 3.19457ZM43.7698 24.6309C39.7536 25.5402 36.8655 25.5022 34.4228 24.7547C34.2423 25.1728 34.0739 25.9139 33.9132 27.0716C33.8333 27.6466 33.7594 28.3003 33.679 29.0071V29.0075C33.4295 31.2101 33.1215 33.9283 32.4003 36.3841C31.848 38.2665 30.6529 40.3346 29.2324 42.328H32.4819C33.0815 40.8537 33.6334 39.4497 34.0671 38.2697C34.533 37.0015 34.8245 36.0894 34.9186 35.6254C35.0966 34.7441 35.4362 33.7957 36.2328 33.1237C37.0613 32.4241 38.0788 32.2739 39.0321 32.3218C39.9708 32.3694 41.0715 32.6193 42.313 32.9715C42.7644 33.0993 43.2497 33.2455 43.7698 33.408V24.6309ZM43.6648 36.7292C42.8218 36.4584 42.0796 36.2288 41.4223 36.0423C40.2228 35.7017 39.4181 35.54 38.8681 35.5124C38.5128 35.4945 38.3691 35.538 38.3279 35.556C38.3045 35.5831 38.1898 35.7376 38.0861 36.252C37.9375 36.9859 37.5616 38.112 37.1029 39.3607C36.7738 40.2568 36.3826 41.267 35.9591 42.328H36.9059C40.2866 42.328 43.0963 39.9109 43.6648 36.7292ZM13.21 42.328C15.3253 41.2491 17.4604 40.1493 19.3844 39.1247C22.7897 37.3114 24.8517 33.8393 25.6915 30.1935C26.1086 28.3833 26.2079 26.5892 26.0391 25.035C25.8675 23.4573 25.4335 22.243 24.892 21.4935C24.8097 21.3793 23.9864 20.5978 21.8485 20.807C19.7278 21.0147 16.386 22.2162 11.6802 25.9978C8.73438 28.365 6.26919 29.9866 4.20151 31.0588V34.6615C4.71121 34.2003 5.28677 33.8149 5.81868 33.4863C6.36057 33.1512 6.95102 32.8218 7.5313 32.4999L7.67512 32.4201C8.21717 32.1198 8.75518 31.8215 9.28943 31.5052C10.4581 30.8128 11.509 30.0896 12.317 29.2483C13.716 27.7916 15.7354 26.0533 17.6338 24.8665C18.5703 24.2807 19.5818 23.7628 20.5361 23.5252C21.4318 23.302 22.8204 23.2113 23.7882 24.3055C24.7091 25.3465 25.0907 26.9079 24.42 28.9344C23.7829 30.8595 22.1828 33.2898 19.0899 36.4508C15.8795 39.7317 12.669 41.3753 9.96225 41.8992C9.65697 41.9583 9.35666 42.003 9.0624 42.0345C9.69606 42.2254 10.3686 42.328 11.0654 42.328H13.21ZM4.20151 17.6395C5.76643 16.9976 7.32551 15.8239 8.7381 13.8516C11.5273 9.95711 12.2014 6.18073 12.0094 3.19457H11.0654C7.27455 3.19457 4.20151 6.23388 4.20151 9.98303V17.6395ZM38.3247 35.5575C38.317 35.5611 38.3138 35.5635 38.3142 35.5635C38.3146 35.5639 38.3162 35.5631 38.319 35.5611L38.321 35.5599L38.3247 35.5575ZM19.3596 27.5667C17.7331 28.5834 15.9164 30.1392 14.6589 31.4485C13.5494 32.6038 12.203 33.503 10.9491 34.2458C10.3729 34.5868 9.7951 34.9071 9.25955 35.2042L9.11121 35.2864C8.52431 35.6119 7.99809 35.9062 7.53054 36.1953C6.52235 36.8182 6.10091 37.2375 5.9688 37.5054C5.93093 37.5825 5.9264 37.6264 5.93811 37.6935C5.95471 37.7894 6.02423 38.0102 6.30085 38.3748L6.32774 38.4103L6.35261 38.447C6.35415 38.449 6.39053 38.4989 6.50612 38.5688C6.62551 38.6411 6.81031 38.7226 7.07279 38.7865C7.60031 38.915 8.36817 38.9522 9.34208 38.7637C11.2787 38.3891 13.9228 37.1377 16.7688 34.229C19.7324 31.2006 20.9377 29.1864 21.3503 27.9409C21.5958 27.199 21.5453 26.7972 21.467 26.592C21.4274 26.5992 21.3806 26.6092 21.3252 26.6231C20.8588 26.7393 20.1855 27.0504 19.3596 27.5667ZM21.6406 26.5768C21.6398 26.578 21.6301 26.578 21.6139 26.5748C21.6329 26.5744 21.6414 26.576 21.6406 26.5768Z" fill="#161616"/>
</svg>
