<svg width="36" height="38" viewBox="0 0 36 38" fill="none" xmlns="http://www.w3.org/2000/svg">
<path d="M10.1277 2.31958C10.1277 1.89859 10.4411 1.54357 10.8588 1.49132L15.8668 0.865332C16.365 0.803067 16.805 1.19148 16.805 1.69354V18.1654C16.805 18.6674 16.365 19.0559 15.8668 18.9936L10.8588 18.3676C10.4411 18.3154 10.1277 17.9603 10.1277 17.5394V2.31958Z" fill="#161616"/>
<path d="M0.111359 4.40633C0.111359 3.9854 0.424807 3.63032 0.842502 3.57812L5.85054 2.95213C6.34876 2.88982 6.78877 3.27828 6.78877 3.78034V16.9135C6.78877 17.4155 6.34876 17.804 5.85054 17.7417L0.842502 17.1157C0.424807 17.0635 0.111359 16.7084 0.111359 16.2875V4.40633Z" fill="#161616"/>
<path d="M26.1889 2.25952C26.5601 2.35244 26.8211 2.68627 26.8211 3.06927V10.0275C26.8211 10.4484 26.5075 10.8035 26.0897 10.8557L21.0818 11.4817C20.5836 11.544 20.1436 11.1555 20.1436 10.6535V1.81724C20.1436 1.27426 20.6539 0.875836 21.1807 1.0075L26.1889 2.25952Z" fill="#161616"/>
<path d="M36.0026 5.15608C36.0026 4.77308 35.7416 4.4392 35.3703 4.34633L30.3623 3.09431C29.8353 2.96259 29.3249 3.36102 29.3249 3.90405V10.2362C29.3249 10.7383 29.7649 11.1268 30.2632 11.0645L35.2712 10.4385C35.6889 10.3863 36.0026 10.0312 36.0026 9.61026V5.15608Z" fill="#161616"/>
<path d="M36.0025 13.6857L19.7262 14.103C19.9617 17.1644 22.5145 19.5284 25.5849 19.5284H29.3248V23.0806L0.111359 20.3631V37.7641L36.0025 35.2603V13.6857Z" fill="#161616"/>
</svg>
