<svg width="32" height="36" viewBox="0 0 32 36" fill="none" xmlns="http://www.w3.org/2000/svg">
<path fill-rule="evenodd" clip-rule="evenodd" d="M19.0157 5.35889C17.0998 4.56527 15.027 4.22306 12.9576 4.35868C10.8883 4.49432 8.87789 5.10417 7.08194 6.14104L5.26989 7.18723L3.17752 3.56316L4.98957 2.51698C7.34142 1.15916 9.97409 0.360526 12.6839 0.182933C15.3938 0.00530785 18.1082 0.453459 20.6171 1.49269C23.1261 2.53195 25.3623 4.13441 27.1529 6.17616C28.9433 8.21789 30.2403 10.6442 30.9433 13.2673C31.646 15.8905 31.7362 18.6401 31.2063 21.3036C30.6765 23.9671 29.5411 26.473 27.8878 28.6275C26.2345 30.782 24.108 32.5274 21.6724 33.7284C19.2368 34.9294 16.0952 35.5542 13.8419 35.5542C11.5885 35.5542 10.2727 35.2162 8.54475 34.5006C6.86539 33.805 5.33951 32.7855 4.05416 31.5002C2.76884 30.2148 1.74928 28.6887 1.05365 27.0093C0.358052 25.3301 0 23.5301 0 21.7124C0 19.8947 0.358052 18.0948 1.05365 16.4154C1.74928 14.736 2.76884 13.2101 4.05416 11.9248C5.33951 10.6395 6.86539 9.6199 8.54475 8.9243C10.2241 8.22867 12.0241 7.87066 13.8418 7.87066C15.6595 7.87066 17.4594 8.22867 19.1388 8.9243C20.8182 9.6199 22.3441 10.6395 23.6294 11.9248C24.9147 13.2101 25.9342 14.736 26.6298 16.4154C26.9292 17.1378 27.1658 17.8824 27.3387 18.6413C27.423 17.2008 27.2765 15.7519 26.9012 14.3504C26.3643 12.3473 25.374 10.4945 24.0067 8.93534C22.6393 7.37618 20.9316 6.15247 19.0157 5.35889ZM5.48437 26.5509C5.72171 22.0522 9.44476 18.4774 14.0027 18.4774C18.3845 18.4774 21.9947 21.7812 22.4781 26.0336C22.5806 25.8288 22.6759 25.6202 22.7637 25.408C23.2491 24.2364 23.4988 22.9806 23.4988 21.7124C23.4988 20.4443 23.2491 19.1885 22.7637 18.0168C22.2784 16.8452 21.5671 15.7806 20.6703 14.8839C19.7736 13.9871 18.709 13.2758 17.5374 12.7905C16.3657 12.3052 15.11 12.0554 13.8418 12.0554C12.5736 12.0554 11.3178 12.3052 10.1462 12.7905C8.97456 13.2758 7.90996 13.9871 7.01321 14.8839C6.11649 15.7806 5.40515 16.8452 4.91982 18.0168C4.43452 19.1885 4.18472 20.4442 4.18472 21.7124C4.18472 22.9806 4.43452 24.2364 4.91982 25.408C5.08299 25.8019 5.27166 26.1836 5.48437 26.5509ZM18.3484 27.0077C18.3484 29.4078 16.4028 31.3534 14.0027 31.3534C11.6027 31.3534 9.65705 29.4078 9.65705 27.0077C9.65705 24.6077 11.6027 22.6621 14.0027 22.6621C16.4028 22.6621 18.3484 24.6077 18.3484 27.0077Z" fill="#161616"/>
</svg>
