<svg width="38" height="37" viewBox="0 0 38 37" fill="none" xmlns="http://www.w3.org/2000/svg">
<path d="M5.32344 4.15586C7.85753 1.73643 11.2985 0.324258 14.786 0.148601C15.9796 0.148601 17.1767 0.155763 18.3703 0.14502C18.3094 1.42463 18.3703 2.70782 18.3345 3.98737C18.166 6.84764 17.1086 9.64339 15.3272 11.8872C13.0118 14.9052 9.47048 16.9303 5.71056 17.4536C4.06896 17.7189 2.40222 17.5504 0.749874 17.597C0.778523 16.1883 0.688934 14.7762 0.80007 13.3711C1.12267 9.88715 2.76786 6.55017 5.32344 4.15586Z" fill="#161616"/>
<path d="M19.476 0.145142C20.7556 0.159466 22.0352 0.137979 23.3184 0.152303C26.512 0.378095 29.6626 1.60393 32.0674 3.72947C34.7199 6.00548 36.5371 9.26004 37.0033 12.7368C37.2072 14.3497 37.0786 15.9806 37.1575 17.6007C36.0388 17.5971 34.9244 17.5935 33.8058 17.6007C31.0568 17.5254 28.3543 16.6365 26.0532 15.1383C24.9922 14.3784 23.9026 13.6078 23.1069 12.554C21.3613 10.6042 20.1749 8.15608 19.7269 5.57538C19.3899 3.78318 19.5261 1.95524 19.476 0.145142Z" fill="#161616"/>
<path d="M0.752622 18.6257C1.88887 18.6903 3.02869 18.572 4.16129 18.6974C9.01084 18.8013 13.7171 21.5254 16.2296 25.6724C17.6706 27.9951 18.4448 30.7479 18.3444 33.4829C18.3408 34.3788 18.3552 35.271 18.33 36.1639C16.5307 36.1099 14.7135 36.2567 12.9321 35.9089C8.97503 35.2425 5.33699 32.8875 3.14693 29.5256C1.48742 27.0811 0.659451 24.0954 0.745459 21.1455C0.745459 20.3031 0.74546 19.4644 0.752622 18.6257Z" fill="#161616"/>
<path d="M31.1013 19.0054C33.0515 18.5717 35.0618 18.6433 37.0441 18.6433L37.1303 18.7294C37.0872 20.604 37.2341 22.5001 36.8578 24.3531C36.0657 28.5109 33.3131 32.2245 29.6103 34.264C27.3056 35.5471 24.6604 36.1777 22.0259 36.1492C21.1836 36.1528 20.3377 36.1346 19.4954 36.1601C19.4954 34.6081 19.4309 33.0488 19.6065 31.5041C20.0151 27.7654 22.0366 24.285 24.9435 21.9338C26.7428 20.5144 28.8576 19.4857 31.1013 19.0054Z" fill="#161616"/>
</svg>
