<svg width="40" height="41" viewBox="0 0 40 41" fill="none" xmlns="http://www.w3.org/2000/svg">
<path fill-rule="evenodd" clip-rule="evenodd" d="M7.0842 10.7236C10.061 6.71962 14.8278 4.12554 20.2005 4.12554C25.6047 4.12554 30.3958 6.75022 33.3689 10.7944C33.2425 10.9245 33.1271 11.0594 33.0229 11.1941C32.4782 11.8993 32.0685 12.8078 31.7402 13.7302C31.0791 15.5856 30.5748 18.0091 30.108 20.2785L30.0665 20.4825C29.6006 22.7477 29.1677 24.8544 28.6442 26.4183C28.409 27.1209 28.1859 27.6176 27.9881 27.9357C27.7818 27.615 27.5476 27.1123 27.2997 26.3996C26.7398 24.7908 26.2689 22.6026 25.7697 20.2661L25.7535 20.1896V20.1896C25.2738 17.9453 24.7649 15.5641 24.1304 13.7413C23.8116 12.8257 23.4205 11.9264 22.909 11.2277C22.4069 10.5419 21.5712 9.76806 20.349 9.76806C19.1344 9.76806 18.2948 10.5336 17.7856 11.2116C17.2641 11.9058 16.8576 12.8014 16.5227 13.7175C15.8483 15.5622 15.2969 17.9752 14.7838 20.2477L14.7308 20.4825C14.2227 22.7337 13.7476 24.8383 13.2085 26.4052C13.0026 27.0035 12.8084 27.4588 12.6325 27.784C12.4607 27.4603 12.2713 27.0081 12.0711 26.4148C11.5538 24.8813 11.1007 22.8356 10.614 20.6384L10.5288 20.2538C10.0245 17.9799 9.47742 15.5625 8.79342 13.712C8.45357 12.7925 8.0379 11.8925 7.49997 11.195C7.37817 11.0371 7.23973 10.8769 7.0842 10.7236ZM5.28256 13.7981C5.42434 14.078 5.57431 14.425 5.72939 14.8446C6.32144 16.4463 6.82305 18.632 7.33958 20.9611L7.44008 21.4149C7.91038 23.5402 8.3996 25.7508 8.97582 27.4588C9.28228 28.3672 9.65238 29.2569 10.1284 29.9483C10.5785 30.6023 11.386 31.447 12.6277 31.447C13.8659 31.447 14.6753 30.6064 15.1285 29.9554C15.6086 29.2655 15.9847 28.3768 16.2974 27.4679C16.8968 25.7261 17.4071 23.4636 17.8955 21.2983V21.2982L17.9702 20.9672C18.4965 18.6367 19.003 16.4467 19.5908 14.8391C19.8631 14.0943 20.118 13.5755 20.3399 13.2536C20.5502 13.5727 20.7905 14.0833 21.0453 14.8153C21.6054 16.4241 22.0759 18.6123 22.5752 20.9488L22.5915 21.0254C23.0711 23.2696 23.58 25.6509 24.2145 27.4734C24.5333 28.3894 24.9244 29.2888 25.4359 29.9873C25.9381 30.6732 26.7737 31.447 27.9957 31.447C29.2243 31.447 30.0569 30.6661 30.5531 29.9741C31.0569 29.2721 31.4357 28.3697 31.7417 27.4552C32.33 25.6987 32.7978 23.4195 33.2435 21.2513V21.2513L33.3077 20.9365C33.7877 18.6028 34.2485 16.4233 34.8175 14.8263C34.9409 14.4789 35.0623 14.1827 35.1782 13.9339C36.0502 15.9324 36.5337 18.1392 36.5337 20.4589C36.5337 29.4795 29.2213 36.7924 20.2005 36.7924C11.1798 36.7924 3.86712 29.4795 3.86712 20.4589C3.86712 18.0865 4.37292 15.8322 5.28256 13.7981ZM20.2005 0.858887C9.37571 0.858887 0.600464 9.63413 0.600464 20.4589C0.600464 31.2837 9.37571 40.0589 20.2005 40.0589C31.0255 40.0589 39.8002 31.2837 39.8002 20.4589C39.8002 9.63413 31.0255 0.858887 20.2005 0.858887ZM20.5715 12.9822C20.5731 12.981 20.5739 12.9803 20.5739 12.9801C20.5739 12.9797 20.57 12.982 20.5624 12.988C20.5666 12.9856 20.5696 12.9836 20.5715 12.9822ZM20.1224 12.9824C20.1148 12.9777 20.111 12.9745 20.111 12.9741C20.111 12.9737 20.1148 12.976 20.1224 12.9824ZM27.7474 28.2458C27.7474 28.2458 27.7509 28.2422 27.758 28.2377C27.7509 28.2438 27.7474 28.2463 27.7474 28.2458ZM28.2223 28.2326C28.2299 28.2372 28.234 28.2402 28.234 28.2407C28.234 28.2412 28.2299 28.2387 28.2223 28.2326ZM12.293 28.2751C12.2929 28.2746 12.2977 28.2701 12.3071 28.2635C12.2978 28.2721 12.293 28.2756 12.293 28.2751ZM12.9545 28.2665C12.9639 28.2731 12.9686 28.2777 12.9686 28.2782C12.9685 28.2787 12.9638 28.2756 12.9545 28.2665Z" fill="#161616"/>
</svg>
