<svg xmlns="http://www.w3.org/2000/svg" xmlns:xlink="http://www.w3.org/1999/xlink" version="1.1" width="256" height="256" viewBox="0 0 256 256" xml:space="preserve">

<defs>
</defs>
<g style="stroke: none; stroke-width: 0; stroke-dasharray: none; stroke-linecap: butt; stroke-linejoin: miter; stroke-miterlimit: 10; fill: none; fill-rule: nonzero; opacity: 1;" transform="translate(1.4065934065934016 1.4065934065934016) scale(2.81 2.81)" >
	<path d="M 45 40.869 c -0.781 0 -1.562 -0.134 -2.305 -0.403 c -5.433 -1.963 -9.254 -6.951 -9.736 -12.707 l -0.43 -7.114 c -0.034 -0.551 0.386 -1.025 0.938 -1.059 c 0.543 -0.043 1.025 0.386 1.059 0.938 l 0.429 7.091 c 0.415 4.957 3.721 9.272 8.421 10.97 c 1.049 0.379 2.202 0.378 3.25 0 c 1.763 -0.637 3.33 -1.627 4.661 -2.944 c 0.553 -0.548 1.059 -1.147 1.501 -1.783 c 0.444 -0.637 0.833 -1.319 1.155 -2.028 c 0.61 -1.342 0.981 -2.768 1.105 -4.239 l 0.454 -7.072 c 0.036 -0.551 0.49 -0.976 1.063 -0.934 c 0.551 0.036 0.969 0.511 0.934 1.062 l -0.456 7.091 c -0.144 1.72 -0.574 3.368 -1.279 4.919 c -0.372 0.819 -0.821 1.608 -1.335 2.345 c -0.512 0.733 -1.096 1.427 -1.734 2.06 c -1.539 1.522 -3.352 2.667 -5.389 3.403 C 46.562 40.734 45.78 40.869 45 40.869 z" style="stroke: none; stroke-width: 1; stroke-dasharray: none; stroke-linecap: butt; stroke-linejoin: miter; stroke-miterlimit: 10; fill: rgb(0,0,0); fill-rule: nonzero; opacity: 1;" transform=" matrix(1 0 0 1 0 0) " stroke-linecap="round" />
	<path d="M 43.089 23.745 c -0.156 0 -0.313 -0.036 -0.461 -0.113 c -1.131 -0.59 -2.184 -0.59 -3.314 0 c -0.491 0.255 -1.094 0.065 -1.349 -0.424 s -0.065 -1.094 0.424 -1.349 c 1.714 -0.894 3.45 -0.894 5.164 0 c 0.49 0.255 0.68 0.859 0.424 1.349 C 43.799 23.549 43.45 23.745 43.089 23.745 z" style="stroke: none; stroke-width: 1; stroke-dasharray: none; stroke-linecap: butt; stroke-linejoin: miter; stroke-miterlimit: 10; fill: rgb(0,0,0); fill-rule: nonzero; opacity: 1;" transform=" matrix(1 0 0 1 0 0) " stroke-linecap="round" />
	<path d="M 51.147 23.745 c -0.155 0 -0.313 -0.036 -0.461 -0.113 c -1.13 -0.59 -2.184 -0.591 -3.315 0 c -0.49 0.257 -1.093 0.065 -1.349 -0.424 c -0.255 -0.49 -0.065 -1.094 0.425 -1.349 c 1.715 -0.894 3.452 -0.893 5.163 0 c 0.49 0.255 0.68 0.859 0.425 1.349 C 51.856 23.549 51.509 23.745 51.147 23.745 z" style="stroke: none; stroke-width: 1; stroke-dasharray: none; stroke-linecap: butt; stroke-linejoin: miter; stroke-miterlimit: 10; fill: rgb(0,0,0); fill-rule: nonzero; opacity: 1;" transform=" matrix(1 0 0 1 0 0) " stroke-linecap="round" />
	<path d="M 44.991 35.067 c -0.003 0 -0.005 0 -0.008 0 c -1.941 -0.003 -3.84 -1.215 -5.645 -3.604 c -0.229 -0.303 -0.267 -0.709 -0.097 -1.049 c 0.169 -0.339 0.516 -0.554 0.895 -0.554 h 9.726 c 0.38 0 0.728 0.215 0.896 0.556 c 0.169 0.341 0.131 0.748 -0.1 1.05 C 48.84 33.855 46.933 35.067 44.991 35.067 z M 42.378 31.86 c 0.897 0.801 1.77 1.206 2.608 1.207 c 0.001 0 0.003 0 0.004 0 c 0.84 0 1.717 -0.404 2.621 -1.207 H 42.378 z" style="stroke: none; stroke-width: 1; stroke-dasharray: none; stroke-linecap: butt; stroke-linejoin: miter; stroke-miterlimit: 10; fill: rgb(0,0,0); fill-rule: nonzero; opacity: 1;" transform=" matrix(1 0 0 1 0 0) " stroke-linecap="round" />
	<path d="M 34.412 31.222 c -0.092 0 -0.187 -0.013 -0.28 -0.041 c -2.541 -0.739 -4.314 -3.104 -4.314 -5.752 v -2.314 c 0 -1.324 1.077 -2.4 2.4 -2.4 h 1.377 c 0.552 0 1 0.448 1 1 s -0.448 1 -1 1 h -1.377 c -0.221 0 -0.4 0.18 -0.4 0.4 v 2.314 c 0 1.764 1.182 3.34 2.873 3.832 c 0.53 0.154 0.835 0.709 0.681 1.239 C 35.244 30.938 34.845 31.222 34.412 31.222 z" style="stroke: none; stroke-width: 1; stroke-dasharray: none; stroke-linecap: butt; stroke-linejoin: miter; stroke-miterlimit: 10; fill: rgb(0,0,0); fill-rule: nonzero; opacity: 1;" transform=" matrix(1 0 0 1 0 0) " stroke-linecap="round" />
	<path d="M 55.587 31.221 c -0.434 0 -0.833 -0.284 -0.96 -0.721 c -0.154 -0.53 0.15 -1.085 0.681 -1.24 c 1.692 -0.492 2.874 -2.068 2.874 -3.833 v -2.313 c 0 -0.221 -0.18 -0.4 -0.4 -0.4 h -1.324 c -0.553 0 -1 -0.448 -1 -1 s 0.447 -1 1 -1 h 1.324 c 1.323 0 2.4 1.077 2.4 2.4 v 2.313 c 0 2.648 -1.774 5.014 -4.315 5.753 C 55.772 31.208 55.679 31.221 55.587 31.221 z" style="stroke: none; stroke-width: 1; stroke-dasharray: none; stroke-linecap: butt; stroke-linejoin: miter; stroke-miterlimit: 10; fill: rgb(0,0,0); fill-rule: nonzero; opacity: 1;" transform=" matrix(1 0 0 1 0 0) " stroke-linecap="round" />
	<path d="M 21.291 51.003 c -0.132 0 -0.266 -0.026 -0.395 -0.081 c -0.507 -0.219 -0.742 -0.807 -0.523 -1.314 c 1.616 -3.757 4.306 -6.049 8.224 -7.006 l 5.855 -0.989 c 1.756 -0.295 3.031 -1.677 3.031 -3.286 l 0.037 -1.522 c 0.013 -0.552 0.515 -1 1.023 -0.976 c 0.552 0.013 0.989 0.472 0.976 1.023 l -0.036 1.498 c 0 2.564 -1.976 4.776 -4.699 5.234 L 29 44.56 c -3.24 0.793 -5.42 2.653 -6.79 5.839 C 22.047 50.776 21.679 51.003 21.291 51.003 z" style="stroke: none; stroke-width: 1; stroke-dasharray: none; stroke-linecap: butt; stroke-linejoin: miter; stroke-miterlimit: 10; fill: rgb(0,0,0); fill-rule: nonzero; opacity: 1;" transform=" matrix(1 0 0 1 0 0) " stroke-linecap="round" />
	<path d="M 45.007 47.921 c -3.396 0 -6.794 -1.629 -10.101 -4.886 c -0.394 -0.388 -0.398 -1.021 -0.011 -1.414 c 0.388 -0.394 1.021 -0.398 1.414 -0.011 c 5.857 5.77 11.542 5.77 17.377 0.001 c 0.394 -0.388 1.026 -0.384 1.414 0.008 c 0.389 0.393 0.385 1.026 -0.008 1.415 C 51.797 46.292 48.403 47.921 45.007 47.921 z" style="stroke: none; stroke-width: 1; stroke-dasharray: none; stroke-linecap: butt; stroke-linejoin: miter; stroke-miterlimit: 10; fill: rgb(0,0,0); fill-rule: nonzero; opacity: 1;" transform=" matrix(1 0 0 1 0 0) " stroke-linecap="round" />
	<path d="M 56.5 21.584 c -0.106 0 -0.214 -0.017 -0.319 -0.052 c -0.427 -0.144 -0.705 -0.556 -0.679 -1.006 c 0.131 -2.243 -0.04 -2.986 -0.184 -3.229 c -2.674 0.411 -5.841 0.623 -9.511 -0.781 c -2.865 -1.199 -6.892 -2.621 -9.098 -1.243 c -1.286 0.802 -2.021 2.609 -2.185 5.371 c -0.025 0.431 -0.325 0.797 -0.742 0.908 c -0.418 0.111 -0.858 -0.06 -1.094 -0.422 c -2.604 -4.006 -3.446 -7.911 -2.373 -10.997 c 0.736 -2.118 2.361 -3.735 4.596 -4.586 c 4.143 -6.278 12.672 -6.584 19.373 -4.066 c 0.378 0.142 0.634 0.497 0.647 0.9 c 0.015 0.403 -0.215 0.776 -0.582 0.944 C 53.553 3.691 53.034 4 52.696 4.244 c 3.885 1.761 6.281 4.037 7.132 6.774 c 0.902 2.907 0.063 6.313 -2.498 10.123 C 57.141 21.424 56.826 21.584 56.5 21.584 z M 46.415 2 c -4.023 0 -7.826 1.396 -9.995 4.898 c -0.123 0.198 -0.31 0.347 -0.531 0.421 c -1.837 0.619 -3.111 1.819 -3.685 3.469 c -0.655 1.882 -0.375 4.218 0.776 6.749 c 0.499 -1.852 1.383 -3.159 2.671 -3.962 c 2.957 -1.846 7.379 -0.391 10.899 1.083 c 3.23 1.235 5.986 1.047 8.479 0.658 c 0.573 -0.104 1.14 0.04 1.568 0.418 c 0.36 0.317 0.593 0.764 0.738 1.294 c 0.873 -2.036 1.069 -3.851 0.582 -5.418 c -0.748 -2.409 -3.165 -4.437 -7.185 -6.028 c -0.463 -0.183 -0.721 -0.679 -0.604 -1.163 c 0.149 -0.622 0.572 -1.189 1.322 -1.746 C 49.803 2.242 48.09 2 46.415 2 z" style="stroke: none; stroke-width: 1; stroke-dasharray: none; stroke-linecap: butt; stroke-linejoin: miter; stroke-miterlimit: 10; fill: rgb(0,0,0); fill-rule: nonzero; opacity: 1;" transform=" matrix(1 0 0 1 0 0) " stroke-linecap="round" />
	<path d="M 68.809 51.003 c -0.388 0 -0.757 -0.227 -0.92 -0.604 c -1.37 -3.186 -3.551 -5.045 -6.86 -5.854 l -5.713 -0.959 c -2.723 -0.458 -4.699 -2.67 -4.699 -5.258 l -0.036 -1.474 c -0.013 -0.552 0.424 -1.01 0.976 -1.023 c 0.009 0 0.017 0 0.024 0 c 0.542 0 0.986 0.432 1 0.976 l 0.036 1.498 c 0 1.632 1.274 3.014 3.031 3.31 l 5.784 0.974 c 3.987 0.971 6.678 3.263 8.295 7.021 c 0.218 0.508 -0.017 1.096 -0.523 1.314 C 69.074 50.977 68.94 51.003 68.809 51.003 z" style="stroke: none; stroke-width: 1; stroke-dasharray: none; stroke-linecap: butt; stroke-linejoin: miter; stroke-miterlimit: 10; fill: rgb(0,0,0); fill-rule: nonzero; opacity: 1;" transform=" matrix(1 0 0 1 0 0) " stroke-linecap="round" />
	<path d="M 20.701 75.592 h -1.348 c -0.223 0 -0.44 -0.074 -0.616 -0.212 c -1.856 -1.449 -2.797 -2.983 -2.797 -4.558 s 0.941 -3.108 2.797 -4.558 c 0.176 -0.138 0.393 -0.212 0.616 -0.212 h 1.348 c 2.63 0 4.77 2.14 4.77 4.77 S 23.331 75.592 20.701 75.592 z M 19.705 73.592 h 0.996 c 1.527 0 2.77 -1.242 2.77 -2.77 s -1.243 -2.77 -2.77 -2.77 h -0.996 c -1.172 0.975 -1.766 1.905 -1.766 2.77 S 18.533 72.617 19.705 73.592 z" style="stroke: none; stroke-width: 1; stroke-dasharray: none; stroke-linecap: butt; stroke-linejoin: miter; stroke-miterlimit: 10; fill: rgb(0,0,0); fill-rule: nonzero; opacity: 1;" transform=" matrix(1 0 0 1 0 0) " stroke-linecap="round" />
	<path d="M 70.647 75.592 H 69.3 c -2.631 0 -4.771 -2.14 -4.771 -4.77 s 2.14 -4.77 4.771 -4.77 h 1.348 c 0.223 0 0.439 0.074 0.615 0.212 c 1.856 1.449 2.798 2.983 2.798 4.558 s -0.941 3.108 -2.798 4.558 C 71.087 75.518 70.87 75.592 70.647 75.592 z M 69.3 68.053 c -1.527 0 -2.771 1.242 -2.771 2.77 s 1.243 2.77 2.771 2.77 h 0.995 c 1.172 -0.975 1.766 -1.905 1.766 -2.77 s -0.594 -1.795 -1.766 -2.77 H 69.3 z" style="stroke: none; stroke-width: 1; stroke-dasharray: none; stroke-linecap: butt; stroke-linejoin: miter; stroke-miterlimit: 10; fill: rgb(0,0,0); fill-rule: nonzero; opacity: 1;" transform=" matrix(1 0 0 1 0 0) " stroke-linecap="round" />
	<path d="M 44.993 90 c -0.095 0 -0.19 -0.014 -0.283 -0.041 l -25.647 -7.576 c -0.425 -0.126 -0.717 -0.516 -0.717 -0.959 v -6.832 c 0 -0.553 0.448 -1 1 -1 s 1 0.447 1 1 v 6.085 l 23.647 6.985 V 57.754 l -23.647 -6.985 v 16.284 c 0 0.553 -0.448 1 -1 1 s -1 -0.447 -1 -1 V 49.431 c 0 -0.315 0.149 -0.612 0.401 -0.801 c 0.252 -0.189 0.58 -0.248 0.882 -0.158 l 25.647 7.576 c 0.425 0.126 0.717 0.516 0.717 0.959 V 89 c 0 0.315 -0.149 0.612 -0.401 0.801 C 45.417 89.932 45.207 90 44.993 90 z" style="stroke: none; stroke-width: 1; stroke-dasharray: none; stroke-linecap: butt; stroke-linejoin: miter; stroke-miterlimit: 10; fill: rgb(0,0,0); fill-rule: nonzero; opacity: 1;" transform=" matrix(1 0 0 1 0 0) " stroke-linecap="round" />
	<path d="M 45.006 90 c -0.213 0 -0.424 -0.068 -0.599 -0.199 c -0.252 -0.188 -0.401 -0.485 -0.401 -0.801 V 57.007 c 0 -0.443 0.292 -0.833 0.717 -0.959 l 25.647 -7.576 c 0.301 -0.089 0.63 -0.031 0.882 0.158 c 0.253 0.188 0.401 0.485 0.401 0.801 v 17.622 c 0 0.553 -0.447 1 -1 1 s -1 -0.447 -1 -1 V 50.769 l -23.646 6.985 v 29.908 l 23.646 -6.985 v -6.085 c 0 -0.553 0.447 -1 1 -1 s 1 0.447 1 1 v 6.832 c 0 0.443 -0.292 0.833 -0.717 0.959 L 45.29 89.959 C 45.197 89.986 45.101 90 45.006 90 z" style="stroke: none; stroke-width: 1; stroke-dasharray: none; stroke-linecap: butt; stroke-linejoin: miter; stroke-miterlimit: 10; fill: rgb(0,0,0); fill-rule: nonzero; opacity: 1;" transform=" matrix(1 0 0 1 0 0) " stroke-linecap="round" />
</g>
</svg>