<svg width="33" height="40" viewBox="0 0 33 40" fill="none" xmlns="http://www.w3.org/2000/svg">
<path d="M16.4 27.2006C17.3941 27.2006 18.2 26.3948 18.2 25.4006C18.2 24.4065 17.3941 23.6006 16.4 23.6006C15.4058 23.6006 14.6 24.4065 14.6 25.4006C14.6 26.3948 15.4058 27.2006 16.4 27.2006Z" stroke="#7C31E6" stroke-width="3" stroke-linecap="round" stroke-linejoin="round"/>
<path d="M16.4003 27.2V30.8" stroke="#7C31E6" stroke-width="3" stroke-linecap="round" stroke-linejoin="round"/>
<path d="M29.0002 16.3997H3.80002C2.80589 16.3997 2 17.2056 2 18.1997V36.1998C2 37.194 2.80589 37.9999 3.80002 37.9999H29.0002C29.9944 37.9999 30.8003 37.194 30.8003 36.1998V18.1997C30.8003 17.2056 29.9944 16.3997 29.0002 16.3997Z" stroke="#7C31E6" stroke-width="3" stroke-linecap="round" stroke-linejoin="round"/>
<path d="M25.4003 14.6001V11.0001C25.4003 6.02948 21.3708 2 16.4002 2C11.4296 2 7.40015 6.02948 7.40015 11.0001V16.4001" stroke="#7C31E6" stroke-width="3" stroke-linecap="round" stroke-linejoin="round"/>
</svg>
