<svg width="12" height="12" viewBox="0 0 12 12" fill="none" xmlns="http://www.w3.org/2000/svg">
<mask id="mask0_75_4130" style="mask-type:luminance" maskUnits="userSpaceOnUse" x="0" y="0" width="12" height="12">
<path d="M0 0H12V12H0V0Z" fill="white"/>
</mask>
<g mask="url(#mask0_75_4130)">
<path d="M12 2.27914C11.5507 2.4781 11.074 2.60855 10.586 2.66614C11.1005 2.35882 11.4855 1.87465 11.669 1.30414C11.1856 1.59116 10.6566 1.7934 10.105 1.90214C9.73395 1.50707 9.24298 1.24536 8.70815 1.15756C8.17331 1.06975 7.62445 1.16073 7.14655 1.41642C6.66866 1.67211 6.2884 2.07824 6.06467 2.5719C5.84094 3.06557 5.78623 3.61923 5.909 4.14714C4.93037 4.09794 3.97302 3.84354 3.09907 3.40045C2.22511 2.95736 1.45408 2.33547 0.836 1.57514C0.521493 2.11701 0.425123 2.7583 0.566479 3.36868C0.707834 3.97905 1.07631 4.51269 1.597 4.86114C1.20608 4.8489 0.823769 4.74329 0.482 4.55314C0.47502 5.12688 0.668492 5.68507 1.02904 6.13142C1.3896 6.57778 1.89462 6.88431 2.457 6.99814C2.09444 7.09694 1.71411 7.11165 1.345 7.04114C1.50234 7.53023 1.80864 7.95791 2.22104 8.26434C2.63343 8.57077 3.13131 8.74063 3.645 8.75014C2.6131 9.55958 1.30215 9.92643 0 9.77014C1.12576 10.4934 2.43592 10.8774 3.774 10.8761C8.345 10.8761 10.927 7.01614 10.772 3.55314C11.2537 3.20466 11.6695 2.77327 12 2.27914Z" fill="#131933"/>
</g>
</svg>
